<svg width="64" height="40" viewBox="0 0 64 40" fill="none" xmlns="http://www.w3.org/2000/svg">
<circle opacity="0.201403" cx="20" cy="20" r="20" fill="black"/>
<path fill-rule="evenodd" clip-rule="evenodd" d="M63.291 19.9224C59.027 17.3113 53.7712 16.0542 49.3273 16.1692L45.612 12.3843C45.1097 11.8724 44.295 11.8724 43.7926 12.3843C43.2901 12.8961 43.2901 13.726 43.7926 14.2378L46.7769 17.2781C45.0004 18.2733 43.2098 18.6582 41.5298 18.6816C40.8104 20.091 40.2758 21.1369 39.8664 21.938C39.0195 23.5949 38.7079 24.2048 38.4025 24.8177C38.2246 25.1748 38.0489 25.5329 37.7708 26.0996C37.6238 26.3993 37.4482 26.7572 37.2284 27.2042H46.8972C46.4322 23.4779 49.2901 20.2139 52.9363 20.2139C56.5306 20.2139 59.3859 23.3979 58.9887 27.0967C61.789 26.5604 63.9148 24.052 63.9148 21.0458C63.9147 20.5858 63.678 20.1594 63.291 19.9224ZM36.258 23.3284C35.1877 21.4374 33.1982 20.2139 30.9791 20.2139C27.3843 20.2139 24.5287 23.3985 24.9268 27.0987C23.095 26.7518 21.5126 25.5624 20.6485 23.8227C20.4281 23.3788 20.4735 22.8456 20.7657 22.447L21.7205 21.1441L20.3962 19.8488C19.645 19.1143 20.0197 17.8246 21.0351 17.618L23.8903 17.0367L23.8904 17.0367L23.8907 17.0366C26.5277 16.4997 27.8678 16.2268 27.9368 16.2149C28.2506 16.0694 29.0064 15.624 29.0064 14.7091C29.0064 13.975 29.5988 13.3818 30.3231 13.3987C31.0353 13.4154 31.591 14.0612 31.5788 14.7869C31.5685 15.3975 31.4373 15.9328 31.2311 16.3982C32.8363 16.6123 34.4076 16.995 35.9301 17.5436L35.2318 15.0712C35.0355 14.3756 35.4299 13.6495 36.1127 13.4494C36.7958 13.2492 37.5084 13.6512 37.7048 14.3469L38.4538 16.9988C38.6906 17.8373 38.602 18.7356 38.2069 19.5096C38.2138 19.4962 37.275 21.3345 36.258 23.3284ZM30.9791 30.0003C32.9212 30.0003 34.4956 28.3964 34.4956 26.4178C34.4956 24.4392 32.9212 22.8353 30.9791 22.8353C29.0369 22.8353 27.4625 24.4392 27.4625 26.4178C27.4625 28.3964 29.0369 30.0003 30.9791 30.0003ZM52.9362 30.0003C54.8783 30.0003 56.4528 28.3964 56.4528 26.4178C56.4528 24.4392 54.8783 22.8353 52.9362 22.8353C50.994 22.8353 49.4196 24.4392 49.4196 26.4178C49.4196 28.3964 50.994 30.0003 52.9362 30.0003Z" fill="#19B89D"/>
</svg>
